# xmcd CD database file
#
# Track frame offsets:
#	150
#	41584
#	80767
#	107756
#	166247
#	216358
#	244613
#	277059
#
# Disc length: 4349 seconds
#
# Revision: 0
# Processed by: cddbd v1.5.2PL0 Copyright (c) Steve Scherf et al.
# Submitted via: CDex 1.70beta2
#
DISCID=6f10fb08
DTITLE=Yoga - Fitness und Entspannung [CD 2)
DYEAR=2007
DGENRE=New Age
TTITLE0=Jaipur (Pink City)
TTITLE1=Wo Ai Ni (Erhudition)
TTITLE2=Dewdrops (Desmond  Channing)
TTITLE3=Eventide (Jill Layton)
TTITLE4=Tao (Aquiles Sojo)
TTITLE5=Chandrakauns (Sur Sudha and Tars Lootens)
TTITLE6=Fields Of Clouds (Tamara Wahl)
TTITLE7=Jade Emperor (Ou Su Ling)
EXTD=YEAR: 2007
EXTT0=
EXTT1=
EXTT2=
EXTT3=
EXTT4=
EXTT5=
EXTT6=
EXTT7=
PLAYORDER=
